<svg width="327" height="84" xmlns="http://www.w3.org/2000/svg" xmlns:xlink="http://www.w3.org/1999/xlink" overflow="hidden"><defs><clipPath id="clip0"><path d="M288 27 615 27 615 111 288 111Z" fill-rule="evenodd" clip-rule="evenodd"/></clipPath></defs><g clip-path="url(#clip0)" transform="translate(-288 -27)"><text font-family="Cambria Math,Cambria Math_MSFontService,sans-serif" font-weight="400" font-size="24" transform="translate(298.565 76)">π‘ π‘π‘π‘π‘’<tspan x="65.36" y="0">=</tspan></text><path d="M5.47266-28.2305 19.4531-9.24609 19.4531-7.82813 4.35938 12.6563 24.6914 12.6563C25.5898 12.6562 26.2773 12.3398 26.7539 11.707 27.2305 11.0742 27.6406 9.66016 27.9844 7.46484L29.7188 7.46484 29.1211 16.0547 0.304688 16.0547 0.304688 14.8945 16.7227-7.35938 0.785156-28.6523 0.785156-29.7656 29.0859-29.7656 29.0859-22.8281 27.5391-22.8281C27.3594-24.4922 26.9961-25.8086 26.4492-26.7773 25.9023-27.7461 25.0742-28.2305 23.9648-28.2305Z" transform="translate(388.592 76)"/><text font-family="Cambria Math,Cambria Math_MSFontService,sans-serif" font-weight="400" font-size="24" transform="translate(457.939 58)">1</text><path d="M4.11328-15.5508 9.82031-6.89063 9.82031-6 3.42188 2.78906 11.1328 2.78906C11.6172 2.78906 11.9824 2.75781 12.2285 2.69531 12.4746 2.63281 12.6855 2.53711 12.8613 2.4082 13.0371 2.2793 13.1973 2.09961 13.3418 1.86914 13.4863 1.63867 13.625 1.32031 13.7578 0.914063 13.8906 0.507813 14.0156-0.0234375 14.1328-0.679688L15.5039-0.679688 15.1641 5.03906 0.304688 5.03906 0.304688 4.38281 7.54688-5.56641 0.75-16.1016 0.75-16.7695 15.2227-16.7695 15.2227-11.5547 13.957-11.5547C13.7617-12.2969 13.5762-12.9023 13.4004-13.3711 13.2246-13.8398 13.0449-14.2109 12.8613-14.4844 12.6777-14.7578 12.4902-14.9668 12.2988-15.1113 12.1074-15.2559 11.8867-15.3652 11.6367-15.4395 11.3867-15.5137 11.0547-15.5508 10.6406-15.5508Z" transform="translate(424.405 94)"/><text font-family="Cambria Math,Cambria Math_MSFontService,sans-serif" font-weight="400" font-size="24" transform="translate(477.012 95)">π‘<tspan font-size="18" x="18.0334" y="4">π‘—</tspan><tspan font-size="18" x="-35.6" y="-13">π‘</tspan><tspan font-size="14" x="-19.2667" y="-10">π‘–</tspan><tspan font-size="18" x="-35.6" y="8">π‘—</tspan><tspan font-size="18" x="-26.8333" y="8">=</tspan><tspan font-size="18" x="-14.1667" y="8">1</tspan></text><path d="M423.932 67.9611 503.932 67.9611 503.932 69.9611 423.932 69.9611Z" fill-rule="evenodd"/><path d="M5.47266-28.2305 19.4531-9.24609 19.4531-7.82813 4.35938 12.6563 24.6914 12.6563C25.5898 12.6562 26.2773 12.3398 26.7539 11.707 27.2305 11.0742 27.6406 9.66016 27.9844 7.46484L29.7188 7.46484 29.1211 16.0547 0.304688 16.0547 0.304688 14.8945 16.7227-7.35938 0.785156-28.6523 0.785156-29.7656 29.0859-29.7656 29.0859-22.8281 27.5391-22.8281C27.3594-24.4922 26.9961-25.8086 26.4492-26.7773 25.9023-27.7461 25.0742-28.2305 23.9648-28.2305Z" transform="translate(508.805 76)"/><text font-family="Cambria Math,Cambria Math_MSFontService,sans-serif" font-weight="400" font-size="24" transform="translate(544.619 76)">π¶πΈπ‘…<tspan font-size="18" x="44.2533" y="5">π‘–π‘—</tspan><tspan font-size="18" x="-31.1067" y="-36">π‘</tspan><tspan font-size="14" x="-14.7733" y="-32">π‘–</tspan><tspan font-size="18" x="-35.7067" y="31">π‘—</tspan><tspan font-size="18" x="-26.94" y="31">=</tspan><tspan font-size="18" x="-14.2733" y="31">1</tspan><tspan font-size="18" x="-145.94" y="-36">π‘›</tspan><tspan font-size="18" x="-154.92" y="31">π‘–</tspan><tspan font-size="18" x="-148.153" y="31">=</tspan><tspan font-size="18" x="-135.487" y="31">1</tspan></text></g></svg>