<svg width="300" height="84" xmlns="http://www.w3.org/2000/svg" xmlns:xlink="http://www.w3.org/1999/xlink" overflow="hidden"><defs><clipPath id="clip0"><path d="M528 467 828 467 828 551 528 551Z" fill-rule="evenodd" clip-rule="evenodd"/></clipPath></defs><g clip-path="url(#clip0)" transform="translate(-528 -467)"><text font-family="Cambria Math,Cambria Math_MSFontService,sans-serif" font-weight="400" font-size="24" transform="translate(532.773 516)">𝑠𝑐𝑜𝑟𝑒<tspan x="65.36" y="0">=</tspan><tspan x="115.107" y="-18">1</tspan><tspan x="90.0267" y="16">𝑛</tspan><tspan x="109.607" y="16">+</tspan><tspan x="132.94" y="16">𝑚</tspan></text><path d="M622.66 507.794 685.66 507.794 685.66 509.794 622.66 509.794Z" fill-rule="evenodd"/><path d="M5.47266-28.2305 19.4531-9.24609 19.4531-7.82813 4.35938 12.6563 24.6914 12.6563C25.5898 12.6562 26.2773 12.3398 26.7539 11.707 27.2305 11.0742 27.6406 9.66016 27.9844 7.46484L29.7188 7.46484 29.1211 16.0547 0.304688 16.0547 0.304688 14.8945 16.7227-7.35938 0.785156-28.6523 0.785156-29.7656 29.0859-29.7656 29.0859-22.8281 27.5391-22.8281C27.3594-24.4922 26.9961-25.8086 26.4492-26.7773 25.9023-27.7461 25.0742-28.2305 23.9648-28.2305Z" transform="translate(690.293 516)"/><path d="M5.47266-28.2305 19.4531-9.24609 19.4531-7.82813 4.35938 12.6563 24.6914 12.6563C25.5898 12.6562 26.2773 12.3398 26.7539 11.707 27.2305 11.0742 27.6406 9.66016 27.9844 7.46484L29.7188 7.46484 29.1211 16.0547 0.304688 16.0547 0.304688 14.8945 16.7227-7.35938 0.785156-28.6523 0.785156-29.7656 29.0859-29.7656 29.0859-22.8281 27.5391-22.8281C27.3594-24.4922 26.9961-25.8086 26.4492-26.7773 25.9023-27.7461 25.0742-28.2305 23.9648-28.2305Z" transform="translate(726.107 516)"/><text font-family="Cambria Math,Cambria Math_MSFontService,sans-serif" font-weight="400" font-size="24" transform="translate(761.92 516)">𝐶𝐸<tspan x="30.2733" y="0">𝑅</tspan><tspan font-size="18" x="45.1933" y="5">𝑖𝑗</tspan><tspan font-size="18" x="-31.1067" y="-36">𝑚</tspan><tspan font-size="14" x="-14.7734" y="-32">𝑖</tspan><tspan font-size="18" x="-24.2933" y="30">𝑗</tspan><tspan font-size="18" x="-61.54" y="-36">𝑛</tspan><tspan font-size="18" x="-70.52" y="30">𝑖</tspan><tspan font-size="18" x="-63.7534" y="30">=</tspan><tspan font-size="18" x="-51.0867" y="30">1</tspan></text></g></svg>