<svg width="232" height="81" xmlns="http://www.w3.org/2000/svg" xmlns:xlink="http://www.w3.org/1999/xlink" overflow="hidden"><defs><clipPath id="clip0"><path d="M406 403 638 403 638 484 406 484Z" fill-rule="evenodd" clip-rule="evenodd"/></clipPath></defs><g clip-path="url(#clip0)" transform="translate(-406 -403)"><text font-family="Cambria Math,Cambria Math_MSFontService,sans-serif" font-weight="400" font-size="24" transform="translate(411.436 452)">𝑀𝐴𝐸<tspan x="58.2733" y="0">=</tspan><tspan x="83.3933" y="-18">1</tspan><tspan x="82.94" y="16">𝑛</tspan></text><path d="M494.763 443.669 508.763 443.669 508.763 445.669 494.763 445.669Z" fill-rule="evenodd"/><path d="M5.47266-28.2305 19.4531-9.24609 19.4531-7.82813 4.35938 12.6563 24.6914 12.6563C25.5898 12.6562 26.2773 12.3398 26.7539 11.707 27.2305 11.0742 27.6406 9.66016 27.9844 7.46484L29.7188 7.46484 29.1211 16.0547 0.304688 16.0547 0.304688 14.8945 16.7227-7.35938 0.785156-28.6523 0.785156-29.7656 29.0859-29.7656 29.0859-22.8281 27.5391-22.8281C27.3594-24.4922 26.9961-25.8086 26.4492-26.7773 25.9023-27.7461 25.0742-28.2305 23.9648-28.2305Z" transform="translate(512.623 452)"/><path d="M627.391 433.912 629.195 433.912 629.195 455.721 627.391 455.721ZM547.331 433.912 549.135 433.912 549.135 455.721 547.331 455.721Z" fill-rule="evenodd"/><text font-family="Cambria Math,Cambria Math_MSFontService,sans-serif" font-weight="400" font-size="24" transform="translate(552.029 452)">𝑦<tspan font-size="18" x="12.7734" y="5">𝑡</tspan><tspan x="27.2333" y="0">−</tspan><tspan x="50.5667" y="0">𝑦</tspan></text><path d="M5.75391-16.8984 9.73828-13.207 9.10547-12.5391 4.96875-15.3867 4.83984-15.3867 0.632813-12.5391 0-13.207 4.18359-16.8984Z" transform="translate(605.743 452)"/><text font-family="Cambria Math,Cambria Math_MSFontService,sans-serif" font-weight="400" font-size="18" transform="translate(615.37 457)">𝑡<tspan x="-92.66" y="-41">𝑛</tspan><tspan x="-102.327" y="25">𝑡</tspan><tspan x="-94.1934" y="25">=</tspan><tspan x="-81.5267" y="25">1</tspan></text></g></svg>