<svg width="258" height="81" xmlns="http://www.w3.org/2000/svg" xmlns:xlink="http://www.w3.org/1999/xlink" overflow="hidden"><defs><clipPath id="clip0"><path d="M406 294 664 294 664 375 406 375Z" fill-rule="evenodd" clip-rule="evenodd"/></clipPath></defs><g clip-path="url(#clip0)" transform="translate(-406 -294)"><text font-family="Cambria Math,Cambria Math_MSFontService,sans-serif" font-weight="400" font-size="24" transform="translate(414.963 343)">𝑀𝐴𝑃𝐸<tspan x="73.1067" y="0">=</tspan><tspan x="98.2267" y="-19">1</tspan><tspan x="97.7733" y="16">𝑛</tspan></text><path d="M512.763 334.661 526.763 334.661 526.763 336.661 512.763 336.661Z" fill-rule="evenodd"/><path d="M5.47266-28.2305 19.4531-9.24609 19.4531-7.82813 4.35938 12.6563 24.6914 12.6563C25.5898 12.6562 26.2773 12.3398 26.7539 11.707 27.2305 11.0742 27.6406 9.66016 27.9844 7.46484L29.7188 7.46484 29.1211 16.0547 0.304688 16.0547 0.304688 14.8945 16.7227-7.35938 0.785156-28.6523 0.785156-29.7656 29.0859-29.7656 29.0859-22.8281 27.5391-22.8281C27.3594-24.4922 26.9961-25.8086 26.4492-26.7773 25.9023-27.7461 25.0742-28.2305 23.9648-28.2305Z" transform="translate(530.983 343)"/><path d="M650.057 305.531 652.167 305.531 652.167 366.094 650.057 366.094ZM569.691 305.531 571.8 305.531 571.8 366.094 569.691 366.094Z" fill-rule="evenodd"/><text font-family="Cambria Math,Cambria Math_MSFontService,sans-serif" font-weight="400" font-size="24" transform="translate(574.696 324)">𝑦<tspan font-size="18" x="12.7733" y="5">𝑡</tspan><tspan x="27.2333" y="0">−</tspan><tspan x="50.5667" y="0">𝑦</tspan></text><path d="M5.75391-16.8984 9.73828-13.207 9.10547-12.5391 4.96875-15.3867 4.83984-15.3867 0.632813-12.5391 0-13.207 4.18359-16.8984Z" transform="translate(628.409 324)"/><text font-family="Cambria Math,Cambria Math_MSFontService,sans-serif" font-weight="400" font-size="18" transform="translate(638.036 329)">𝑡<tspan font-size="24" x="-38.06" y="30">𝑦</tspan><tspan x="-25.2867" y="35">𝑡</tspan></text><path d="M574.763 334.661 610.763 334.661 646.763 334.661 646.763 336.661 610.763 336.661 574.763 336.661Z" fill-rule="evenodd"/><text font-family="Cambria Math,Cambria Math_MSFontService,sans-serif" font-weight="400" font-size="18" transform="translate(541.07 307)">𝑛<tspan x="-9.66669" y="66">𝑡</tspan><tspan x="-1.53333" y="66">=</tspan><tspan x="11.1333" y="66">1</tspan></text></g></svg>