<svg width="325" height="67" xmlns="http://www.w3.org/2000/svg" xmlns:xlink="http://www.w3.org/1999/xlink" overflow="hidden"><defs><clipPath id="clip0"><path d="M406 149 731 149 731 216 406 216Z" fill-rule="evenodd" clip-rule="evenodd"/></clipPath></defs><g clip-path="url(#clip0)" transform="translate(-406 -149)"><text font-family="Cambria Math,Cambria Math_MSFontService,sans-serif" font-weight="400" font-size="24" transform="translate(411.016 191)">𝑀𝐷𝐴𝑃𝐸<tspan x="89.7733" y="0">=</tspan><tspan x="114.44" y="0">𝑚𝑒𝑑𝑖𝑎𝑛</tspan></text><path d="M713.894 153.458C717.105 156.208 719.654 160.31 721.54 165.763 723.427 171.216 724.37 177.302 724.37 184.021 724.37 190.638 723.427 196.714 721.54 202.249 719.654 207.785 717.105 211.919 713.894 214.654L713.343 213.787C716.116 210.966 718.253 206.884 719.753 201.54 721.253 196.197 722.003 190.361 722.003 184.033 722.003 177.556 721.249 171.693 719.741 166.443 718.234 161.193 716.101 157.158 713.343 154.337ZM622.982 153.458 623.532 154.337C620.767 157.158 618.632 161.193 617.128 166.443 615.624 171.693 614.872 177.556 614.872 184.033 614.872 190.361 615.622 196.197 617.122 201.54 618.622 206.884 620.759 210.966 623.532 213.787L622.982 214.654C619.771 211.919 617.222 207.785 615.335 202.249 613.448 196.714 612.505 190.638 612.505 184.021 612.505 177.302 613.448 171.216 615.335 165.763 617.222 160.31 619.771 156.208 622.982 153.458Z" fill-rule="evenodd"/><path d="M707.564 153.773 709.673 153.773 709.673 214.336 707.564 214.336ZM627.197 153.773 629.307 153.773 629.307 214.336 627.197 214.336Z" fill-rule="evenodd"/><text font-family="Cambria Math,Cambria Math_MSFontService,sans-serif" font-weight="400" font-size="24" transform="translate(632.203 173)">𝑦<tspan font-size="18" x="12.7734" y="5">𝑡</tspan><tspan x="27.2333" y="0">−</tspan><tspan x="50.5667" y="0">𝑦</tspan></text><path d="M5.75391-16.8984 9.73828-13.207 9.10547-12.5391 4.96875-15.3867 4.83984-15.3867 0.632813-12.5391 0-13.207 4.18359-16.8984Z" transform="translate(685.916 173)"/><text font-family="Cambria Math,Cambria Math_MSFontService,sans-serif" font-weight="400" font-size="18" transform="translate(695.543 178)">𝑡<tspan font-size="24" x="-38.06" y="29">𝑦</tspan><tspan x="-25.2867" y="34">𝑡</tspan></text><path d="M631.763 182.903 703.763 182.903 703.763 184.903 631.763 184.903Z" fill-rule="evenodd"/></g></svg>