<svg width="263" height="65" xmlns="http://www.w3.org/2000/svg" xmlns:xlink="http://www.w3.org/1999/xlink" overflow="hidden"><defs><clipPath id="clip0"><path d="M743 499 1006 499 1006 564 743 564Z" fill-rule="evenodd" clip-rule="evenodd"/></clipPath></defs><g clip-path="url(#clip0)" transform="translate(-743 -499)"><text font-family="Cambria Math,Cambria Math_MSFontService,sans-serif" font-weight="400" font-size="24" transform="translate(747.409 541)">𝑅2<tspan x="35.3333" y="0">=</tspan><tspan x="60" y="0">1</tspan><tspan x="78.6667" y="0">−</tspan></text><path d="M4.11328-15.5508 9.82031-6.89063 9.82031-6 3.42188 2.78906 11.1328 2.78906C11.6172 2.78906 11.9824 2.75781 12.2285 2.69531 12.4746 2.63281 12.6855 2.53711 12.8613 2.4082 13.0371 2.2793 13.1973 2.09961 13.3418 1.86914 13.4863 1.63867 13.625 1.32031 13.7578 0.914063 13.8906 0.507813 14.0156-0.0234375 14.1328-0.679688L15.5039-0.679688 15.1641 5.03906 0.304688 5.03906 0.304688 4.38281 7.54688-5.56641 0.75-16.1016 0.75-16.7695 15.2227-16.7695 15.2227-11.5547 13.957-11.5547C13.7617-12.2969 13.5762-12.9023 13.4004-13.3711 13.2246-13.8398 13.0449-14.2109 12.8613-14.4844 12.6777-14.7578 12.4902-14.9668 12.2988-15.1113 12.1074-15.2559 11.8867-15.3652 11.6367-15.4395 11.3867-15.5137 11.0547-15.5508 10.6406-15.5508Z" transform="translate(849.409 522)"/><path d="M980.571 505.012C982.852 505.613 984.604 506.912 985.827 508.908 987.049 510.904 987.661 513.312 987.661 516.133 987.661 518.961 987.051 521.369 985.833 523.357 984.614 525.346 982.86 526.641 980.571 527.242L980.29 526.34C982.094 525.738 983.436 524.551 984.315 522.777 985.194 521.004 985.633 518.75 985.633 516.016 985.633 513.375 985.196 511.182 984.321 509.435 983.446 507.689 982.09 506.516 980.255 505.914ZM906.582 505.012 906.898 505.914C905.07 506.516 903.717 507.689 902.838 509.435 901.959 511.182 901.519 513.375 901.519 516.016 901.519 518.75 901.959 521.004 902.838 522.777 903.717 524.551 905.058 525.738 906.863 526.34L906.582 527.242C904.293 526.641 902.539 525.346 901.32 523.357 900.101 521.369 899.492 518.961 899.492 516.133 899.492 513.312 900.103 510.904 901.326 508.908 902.549 506.912 904.301 505.613 906.582 505.012Z" fill-rule="evenodd"/><text font-family="Cambria Math,Cambria Math_MSFontService,sans-serif" font-weight="400" font-size="24" transform="translate(907.343 523)">𝑦<tspan font-size="18" x="12.7733" y="5">𝑡</tspan><tspan x="27.2333" y="0">−</tspan><tspan x="50.5667" y="0">𝑦</tspan></text><path d="M5.75391-16.8984 9.73828-13.207 9.10547-12.5391 4.96875-15.3867 4.83984-15.3867 0.632813-12.5391 0-13.207 4.18359-16.8984Z" transform="translate(961.056 523)"/><text font-family="Cambria Math,Cambria Math_MSFontService,sans-serif" font-weight="400" font-size="18" transform="translate(970.683 528)">𝑡<tspan x="19.0867" y="-14">2</tspan><tspan x="-104.267" y="-14">𝑛</tspan><tspan x="-104.267" y="0">𝑡</tspan><tspan x="-96.1333" y="0">=</tspan><tspan x="-83.4667" y="0">1</tspan></text><path d="M4.11328-15.5508 9.82031-6.89063 9.82031-6 3.42188 2.78906 11.1328 2.78906C11.6172 2.78906 11.9824 2.75781 12.2285 2.69531 12.4746 2.63281 12.6855 2.53711 12.8613 2.4082 13.0371 2.2793 13.1973 2.09961 13.3418 1.86914 13.4863 1.63867 13.625 1.32031 13.7578 0.914063 13.8906 0.507813 14.0156-0.0234375 14.1328-0.679688L15.5039-0.679688 15.1641 5.03906 0.304688 5.03906 0.304688 4.38281 7.54688-5.56641 0.75-16.1016 0.75-16.7695 15.2227-16.7695 15.2227-11.5547 13.957-11.5547C13.7617-12.2969 13.5762-12.9023 13.4004-13.3711 13.2246-13.8398 13.0449-14.2109 12.8613-14.4844 12.6777-14.7578 12.4902-14.9668 12.2988-15.1113 12.1074-15.2559 11.8867-15.3652 11.6367-15.4395 11.3867-15.5137 11.0547-15.5508 10.6406-15.5508Z" transform="translate(849.409 556)"/><path d="M980.571 539.232C982.852 539.833 984.604 541.132 985.827 543.128 987.049 545.124 987.661 547.532 987.661 550.353 987.661 553.181 987.051 555.589 985.833 557.577 984.614 559.566 982.86 560.861 980.571 561.462L980.29 560.56C982.094 559.958 983.436 558.771 984.315 556.997 985.194 555.224 985.633 552.97 985.633 550.236 985.633 547.595 985.196 545.402 984.321 543.655 983.446 541.909 982.09 540.736 980.255 540.134ZM906.582 539.232 906.898 540.134C905.07 540.736 903.717 541.909 902.838 543.655 901.959 545.402 901.519 547.595 901.519 550.236 901.519 552.97 901.959 555.224 902.838 556.997 903.717 558.771 905.058 559.958 906.863 560.56L906.582 561.462C904.293 560.861 902.539 559.566 901.32 557.577 900.101 555.589 899.492 553.181 899.492 550.353 899.492 547.532 900.103 545.124 901.326 543.128 902.549 541.132 904.301 539.833 906.582 539.232Z" fill-rule="evenodd"/><text font-family="Cambria Math,Cambria Math_MSFontService,sans-serif" font-weight="400" font-size="24" transform="translate(907.343 557)">𝑦<tspan font-size="18" x="12.7733" y="5">𝑡</tspan><tspan x="27.2333" y="0">−</tspan><tspan x="50.5667" y="0">𝑦</tspan></text><path d="M10.3242-14.0273 0-14.0273 0-15.2695 10.3242-15.2695Z" transform="translate(960.763 557)"/><text font-family="Cambria Math,Cambria Math_MSFontService,sans-serif" font-weight="400" font-size="18" transform="translate(970.683 562)">𝑡<tspan x="19.0867" y="-12">2</tspan><tspan x="-104.267" y="-14">𝑛</tspan><tspan x="-104.267" y="1">𝑡</tspan><tspan x="-96.1333" y="1">=</tspan><tspan x="-83.4667" y="1">1</tspan></text><path d="M849.423 533.145 900.089 533.145 950.756 533.145 1001.42 533.145 1001.42 535.145 950.756 535.145 900.089 535.145 849.423 535.145Z" fill-rule="evenodd"/></g></svg>