<svg width="277" height="115" xmlns="http://www.w3.org/2000/svg" xmlns:xlink="http://www.w3.org/1999/xlink" overflow="hidden"><defs><clipPath id="clip0"><path d="M406 504 683 504 683 619 406 619Z" fill-rule="evenodd" clip-rule="evenodd"/></clipPath></defs><g clip-path="url(#clip0)" transform="translate(-406 -504)"><path d="M419.214 556.793C418.8 556.793 418.362 556.809 417.901 556.84L416.401 563.625 417.784 563.625C418.917 563.625 419.811 563.473 420.468 563.168 421.124 562.864 421.643 562.364 422.026 561.668 422.409 560.973 422.6 560.223 422.6 559.418 422.6 559.082 422.569 558.784 422.507 558.522 422.444 558.26 422.362 558.043 422.261 557.871 422.159 557.7 422.03 557.547 421.874 557.414 421.718 557.282 421.522 557.166 421.288 557.069 421.053 556.971 420.782 556.901 420.473 556.858 420.165 556.815 419.745 556.793 419.214 556.793ZM463.514 555.762 474.296 555.762 473.487 559.36 472.362 559.36C472.331 558.68 472.272 558.168 472.186 557.825 472.1 557.481 471.997 557.244 471.876 557.116 471.755 556.987 471.61 556.901 471.442 556.858 471.274 556.815 471.034 556.793 470.721 556.793L466.901 556.793 465.565 562.934 467.803 562.934C468.358 562.934 468.782 562.803 469.075 562.541 469.368 562.28 469.663 561.848 469.96 561.246L471.026 561.246 469.971 565.746 468.975 565.746C468.975 565.121 468.936 564.698 468.858 564.475 468.78 564.252 468.665 564.112 468.512 564.053 468.36 563.994 468.085 563.965 467.686 563.965L465.343 563.965 463.843 570.727 467.311 570.727C467.772 570.727 468.137 570.68 468.407 570.586 468.677 570.492 468.93 570.34 469.169 570.129 469.407 569.918 469.645 569.623 469.884 569.244 470.122 568.866 470.405 568.352 470.733 567.703L471.87 567.703 470.839 571.758 460.444 571.758 460.573 571.184C460.87 571.137 461.093 571.061 461.241 570.955 461.389 570.85 461.514 570.703 461.616 570.516 461.718 570.328 461.811 570.1 461.897 569.83 461.983 569.561 462.112 569.039 462.284 568.266L464.276 559.242C464.448 558.461 464.534 557.832 464.534 557.356 464.534 556.989 464.442 556.733 464.259 556.588 464.075 556.444 463.784 556.36 463.386 556.336ZM429.491 555.762 433.675 555.762 435.011 567.129 441.843 555.762 445.534 555.762 445.405 556.336C445.108 556.399 444.895 556.469 444.766 556.547 444.637 556.625 444.52 556.742 444.415 556.899 444.309 557.055 444.204 557.299 444.098 557.631 443.993 557.963 443.858 558.504 443.694 559.254L441.69 568.348C441.589 568.809 441.522 569.174 441.491 569.444 441.46 569.713 441.444 569.957 441.444 570.176 441.444 570.528 441.532 570.776 441.708 570.92 441.884 571.065 442.178 571.153 442.593 571.184L442.464 571.758 437.776 571.758 437.905 571.184C438.202 571.137 438.425 571.061 438.573 570.955 438.721 570.85 438.846 570.703 438.948 570.516 439.05 570.328 439.143 570.1 439.229 569.83 439.315 569.561 439.444 569.039 439.616 568.266L441.175 561.2C441.393 560.223 441.643 559.25 441.925 558.282L441.761 558.282C441.518 558.742 440.971 559.68 440.12 561.094L434.788 569.895 433.511 569.895 432.538 562.36C432.397 561.297 432.241 559.867 432.069 558.071L431.835 558.071C431.569 559.821 431.272 561.442 430.944 562.934L429.749 568.348C429.585 569.09 429.503 569.7 429.503 570.176 429.503 570.528 429.591 570.776 429.766 570.92 429.942 571.065 430.237 571.153 430.651 571.184L430.522 571.758 426.421 571.758 426.55 571.184C426.846 571.137 427.069 571.061 427.218 570.955 427.366 570.85 427.491 570.703 427.593 570.516 427.694 570.328 427.788 570.1 427.874 569.83 427.96 569.561 428.089 569.039 428.261 568.266L430.253 559.242C430.331 558.907 430.393 558.586 430.44 558.282 430.487 557.977 430.511 557.668 430.511 557.356 430.511 556.989 430.419 556.733 430.235 556.588 430.052 556.444 429.761 556.36 429.362 556.336ZM414.514 555.762 419.729 555.762C420.557 555.762 421.233 555.811 421.757 555.909 422.28 556.006 422.727 556.153 423.098 556.348 423.47 556.543 423.78 556.795 424.03 557.104 424.28 557.412 424.468 557.76 424.593 558.147 424.718 558.534 424.78 558.946 424.78 559.383 424.78 560.586 424.413 561.61 423.678 562.453 422.944 563.297 421.862 563.938 420.432 564.375L420.432 564.504C420.807 564.785 421.11 565.121 421.341 565.512 421.571 565.903 421.757 566.446 421.897 567.141L422.167 568.5C422.253 568.93 422.35 569.317 422.46 569.66 422.569 570.004 422.7 570.278 422.852 570.481 423.005 570.684 423.177 570.836 423.368 570.938 423.559 571.039 423.839 571.121 424.206 571.184L424.089 571.758 420.843 571.758C420.593 571.063 420.37 570.235 420.175 569.274L419.659 566.789C419.573 566.36 419.47 565.998 419.348 565.705 419.227 565.412 419.083 565.186 418.915 565.026 418.747 564.866 418.552 564.76 418.329 564.709 418.106 564.659 417.835 564.633 417.514 564.633L416.178 564.633 415.358 568.348C415.288 568.653 415.239 568.895 415.212 569.075 415.184 569.254 415.161 569.444 415.141 569.643 415.122 569.842 415.112 570.02 415.112 570.176 415.112 570.418 415.151 570.608 415.229 570.744 415.307 570.881 415.425 570.981 415.581 571.043 415.737 571.106 416.007 571.153 416.389 571.184L416.261 571.758 411.444 571.758 411.573 571.184C411.87 571.137 412.093 571.061 412.241 570.955 412.389 570.85 412.514 570.703 412.616 570.516 412.718 570.328 412.811 570.1 412.897 569.83 412.983 569.561 413.112 569.039 413.284 568.266L415.276 559.242C415.448 558.461 415.534 557.844 415.534 557.391 415.534 557.008 415.444 556.742 415.264 556.594 415.085 556.446 414.792 556.36 414.386 556.336ZM455.096 555.575C455.815 555.575 456.481 555.623 457.095 555.721 457.708 555.819 458.386 555.985 459.128 556.219L458.471 559.231 457.346 559.231C457.315 558.567 457.214 558.045 457.042 557.666 456.87 557.287 456.624 557.016 456.303 556.852 455.983 556.688 455.557 556.606 455.026 556.606 454.378 556.606 453.807 556.739 453.315 557.004 452.823 557.27 452.448 557.631 452.19 558.088 451.932 558.545 451.803 559.055 451.803 559.617 451.803 560.203 451.958 560.717 452.266 561.159 452.575 561.6 453.167 562.121 454.042 562.723 454.807 563.254 455.391 563.729 455.794 564.147 456.196 564.565 456.493 565.008 456.684 565.477 456.876 565.946 456.971 566.489 456.971 567.106 456.971 568.059 456.743 568.905 456.286 569.643 455.829 570.381 455.184 570.951 454.352 571.354 453.52 571.756 452.573 571.957 451.511 571.957 450.792 571.957 450.016 571.899 449.184 571.782 448.352 571.664 447.608 571.516 446.952 571.336L447.655 568.114 448.78 568.114C448.78 569.067 449.001 569.776 449.442 570.241 449.884 570.705 450.565 570.938 451.487 570.938 452.55 570.938 453.386 570.649 453.995 570.071 454.604 569.492 454.909 568.688 454.909 567.657 454.909 567.18 454.825 566.76 454.657 566.397 454.489 566.034 454.235 565.686 453.895 565.354 453.555 565.022 453.065 564.641 452.425 564.211 451.846 563.821 451.366 563.436 450.983 563.057 450.6 562.678 450.296 562.254 450.069 561.785 449.843 561.317 449.729 560.793 449.729 560.215 449.729 559.293 449.952 558.481 450.397 557.778 450.843 557.075 451.471 556.532 452.284 556.149 453.096 555.766 454.034 555.575 455.096 555.575Z" fill-rule="evenodd"/><text fill="#000000" fill-opacity="0" font-family="Arial,Arial_MSFontService,sans-serif" font-size="16.3828" x="411.444" y="569.909">𝑅𝑀𝑆𝐸</text><path d="M483.629 566.555 498.066 566.555 498.066 568.114 483.629 568.114ZM483.629 561.692 498.066 561.692 498.066 563.25 483.629 563.25Z" fill-rule="evenodd"/><text fill="#000000" fill-opacity="0" font-family="Arial,Arial_MSFontService,sans-serif" font-size="6.42188" x="483.629" y="567.311">=</text><path d="M524.763 509.758 576.096 509.758 627.43 509.758 678.763 509.758 678.763 511.758 627.43 511.758 576.096 511.758 524.763 511.758 524.763 511.473 523.507 511.473 518.186 616.883 517.096 616.883 509.69 603.207 507.382 604.414 506.96 603.558 511.225 601.332 517.155 612.312 522.288 509.914 524.763 509.914Z" fill-rule="evenodd"/><path d="M532.993 537.408 533.638 537.408C533.591 538.158 533.567 539.197 533.567 540.525L533.567 550.533C533.567 550.986 533.593 551.328 533.644 551.558 533.694 551.789 533.784 551.976 533.913 552.121 534.042 552.265 534.228 552.379 534.47 552.461 534.712 552.543 535.017 552.605 535.384 552.648 535.751 552.691 536.235 552.72 536.837 552.736L536.837 553.591 528.177 553.591 528.177 552.736C529.044 552.697 529.663 552.644 530.034 552.578 530.405 552.511 530.688 552.412 530.884 552.279 531.079 552.146 531.222 551.959 531.312 551.716 531.401 551.474 531.446 551.08 531.446 550.533L531.446 541.029C531.446 540.716 531.392 540.488 531.282 540.343 531.173 540.199 531.013 540.127 530.802 540.127 530.552 540.127 530.196 540.255 529.735 540.513 529.274 540.771 528.704 541.127 528.024 541.58L527.509 540.677Z" fill-rule="evenodd"/><text fill="#000000" fill-opacity="0" font-family="Arial,Arial_MSFontService,sans-serif" font-size="16.1836" x="527.509" y="551.568">1</text><path d="M528.661 576.409C529.153 576.409 529.542 576.571 529.827 576.895 530.112 577.22 530.255 577.643 530.255 578.167 530.255 578.581 530.161 579.042 529.973 579.55L530.114 579.597C530.88 578.518 531.608 577.72 532.3 577.2 532.991 576.681 533.704 576.421 534.438 576.421 535.165 576.421 535.723 576.63 536.114 577.048 536.505 577.466 536.7 578.046 536.7 578.788 536.7 579.28 536.587 579.979 536.36 580.886L535.598 583.956C535.387 584.808 535.282 585.409 535.282 585.761 535.282 586.073 535.333 586.3 535.434 586.44 535.536 586.581 535.696 586.651 535.915 586.651 536.149 586.651 536.399 586.556 536.665 586.364 536.93 586.173 537.305 585.808 537.79 585.268L538.458 585.925C537.786 586.643 537.2 587.169 536.7 587.501 536.2 587.833 535.63 587.999 534.989 587.999 534.481 587.999 534.075 587.817 533.77 587.454 533.466 587.091 533.313 586.628 533.313 586.065 533.313 585.558 533.442 584.811 533.7 583.827L534.216 581.8C534.403 581.065 534.526 580.522 534.585 580.171 534.643 579.819 534.673 579.534 534.673 579.315 534.673 578.776 534.583 578.388 534.403 578.149 534.223 577.911 533.93 577.792 533.524 577.792 533.196 577.792 532.843 577.923 532.464 578.185 532.085 578.446 531.682 578.841 531.257 579.368 530.831 579.895 530.489 580.407 530.231 580.903 529.973 581.399 529.762 582.011 529.598 582.737L528.485 587.811 526.458 587.811 528.169 580.382C528.341 579.632 528.427 579.054 528.427 578.647 528.427 578.335 528.376 578.108 528.274 577.968 528.173 577.827 528.012 577.757 527.794 577.757 527.552 577.757 527.296 577.856 527.026 578.056 526.757 578.255 526.387 578.616 525.919 579.14L525.251 578.483C525.969 577.733 526.567 577.2 527.044 576.884 527.52 576.567 528.059 576.409 528.661 576.409Z" fill-rule="evenodd"/><text fill="#000000" fill-opacity="0" font-family="Arial,Arial_MSFontService,sans-serif" font-size="11.5898" x="525.251" y="586.55">𝑛</text><path d="M524.763 563.758 538.763 563.758 538.763 565.758 524.763 565.758Z" fill-rule="evenodd"/><path d="M544.001 541.999 572.302 541.999 572.302 548.937 570.755 548.937C570.576 547.273 570.212 545.956 569.665 544.987 569.119 544.019 568.29 543.534 567.181 543.534L548.689 543.534 562.669 562.519 562.669 563.937 547.576 584.421 567.908 584.421C568.806 584.421 569.494 584.105 569.97 583.472 570.447 582.839 570.857 581.425 571.201 579.23L572.935 579.23 572.337 587.819 543.521 587.819 543.521 586.659 559.939 564.405 544.001 543.112Z" fill-rule="evenodd"/><text fill="#000000" fill-opacity="0" font-family="Arial,Arial_MSFontService,sans-serif" font-size="45.8203" x="543.521" y="582.092">෍</text><path d="M658.218 553.791C660.499 554.393 662.251 555.692 663.474 557.688 664.696 559.684 665.308 562.092 665.308 564.912 665.308 567.74 664.698 570.149 663.48 572.137 662.261 574.125 660.507 575.42 658.218 576.022L657.937 575.119C659.741 574.518 661.083 573.33 661.962 571.557 662.841 569.783 663.28 567.529 663.28 564.795 663.28 562.154 662.843 559.961 661.968 558.215 661.093 556.469 659.737 555.295 657.901 554.694ZM584.229 553.791 584.545 554.694C582.717 555.295 581.364 556.469 580.485 558.215 579.606 559.961 579.166 562.154 579.166 564.795 579.166 567.529 579.606 569.783 580.485 571.557 581.364 573.33 582.705 574.518 584.51 575.119L584.229 576.022C581.94 575.42 580.186 574.125 578.967 572.137 577.748 570.149 577.139 567.74 577.139 564.912 577.139 562.092 577.75 559.684 578.973 557.688 580.196 555.692 581.948 554.393 584.229 553.791Z" fill-rule="evenodd"/><path d="M588.857 560.367C589.177 560.367 589.45 560.41 589.677 560.496 589.833 560.559 589.99 560.662 590.146 560.807 590.302 560.951 590.441 561.153 590.562 561.41 590.683 561.668 590.788 561.957 590.878 562.278 590.968 562.598 591.068 563.059 591.177 563.66 591.365 564.668 591.546 565.729 591.722 566.842 591.898 567.955 592.048 568.989 592.173 569.942 592.931 568.848 593.573 567.778 594.101 566.731 594.628 565.684 595.007 564.774 595.238 564 595.468 563.227 595.583 562.598 595.583 562.114 595.583 561.746 595.505 561.496 595.349 561.364 595.193 561.231 594.927 561.153 594.552 561.129L594.669 560.555 597.751 560.555 598.068 561.141C597.474 562.766 596.669 564.504 595.654 566.356 594.654 568.168 593.509 569.973 592.22 571.77 590.986 573.481 589.958 574.719 589.138 575.485 588.568 576.008 588.017 576.383 587.486 576.61 587.064 576.782 586.615 576.867 586.138 576.867 585.974 576.867 585.784 576.854 585.57 576.826 585.355 576.799 585.189 576.762 585.072 576.715L585.575 574.442 586.501 574.442C586.501 574.942 586.673 575.192 587.017 575.192 587.47 575.192 587.997 574.909 588.599 574.342 589.2 573.776 589.907 572.922 590.72 571.782 590.493 570.414 590.185 568.766 589.794 566.836 589.38 564.774 589.107 563.496 588.974 563.004 588.81 562.41 588.638 562.032 588.458 561.867 588.349 561.766 588.212 561.715 588.048 561.715 587.798 561.715 587.564 561.817 587.345 562.02 587.126 562.223 586.857 562.575 586.536 563.075L585.775 562.571C586.314 561.766 586.818 561.198 587.286 560.866 587.755 560.534 588.279 560.367 588.857 560.367Z" fill-rule="evenodd"/><text fill="#000000" fill-opacity="0" font-family="Arial,Arial_MSFontService,sans-serif" font-size="16.5" x="585.072" y="574.805">𝑦</text><path d="M601.542 565.637 602.913 565.637 602.412 567.869 605.401 567.869 605.198 568.845 602.219 568.845 601.322 572.527C601.264 572.773 601.215 572.995 601.177 573.191 601.139 573.387 601.109 573.564 601.085 573.723 601.062 573.881 601.046 574.024 601.037 574.153 601.028 574.282 601.024 574.402 601.024 574.514 601.024 574.865 601.097 575.141 601.243 575.34 601.39 575.539 601.63 575.639 601.964 575.639 602.245 575.639 602.544 575.535 602.86 575.327 603.177 575.119 603.537 574.792 603.942 574.347L604.548 574.962C604.249 575.296 603.965 575.58 603.695 575.814 603.426 576.049 603.162 576.241 602.904 576.39 602.647 576.539 602.392 576.648 602.14 576.715 601.888 576.783 601.63 576.816 601.366 576.816 600.669 576.816 600.149 576.652 599.806 576.324 599.464 575.996 599.292 575.513 599.292 574.874 599.292 574.657 599.308 574.418 599.34 574.158 599.373 573.897 599.418 573.643 599.477 573.397L600.523 568.845 599.011 568.845 599.187 568.168C599.538 568.168 599.812 568.134 600.008 568.067 600.205 567.999 600.37 567.907 600.505 567.79 600.593 567.708 600.678 567.607 600.76 567.487 600.842 567.367 600.924 567.222 601.006 567.052 601.088 566.882 601.172 566.681 601.256 566.45 601.341 566.218 601.437 565.947 601.542 565.637Z" fill-rule="evenodd"/><text fill="#000000" fill-opacity="0" font-family="Arial,Arial_MSFontService,sans-serif" font-size="11.1797" x="599.011" y="575.419">𝑡</text><path d="M613.969 564.117 628.406 564.117 628.406 565.676 613.969 565.676Z" fill-rule="evenodd"/><text fill="#000000" fill-opacity="0" font-family="Arial,Arial_MSFontService,sans-serif" font-size="1.55859" x="613.969" y="565.481">−</text><path d="M639.423 560.367C639.744 560.367 640.017 560.41 640.244 560.496 640.4 560.559 640.556 560.662 640.712 560.807 640.869 560.951 641.007 561.153 641.128 561.41 641.25 561.668 641.355 561.957 641.445 562.278 641.535 562.598 641.634 563.059 641.744 563.66 641.931 564.668 642.113 565.729 642.289 566.842 642.464 567.955 642.615 568.989 642.74 569.942 643.498 568.848 644.14 567.778 644.667 566.731 645.195 565.684 645.574 564.774 645.804 564 646.035 563.227 646.15 562.598 646.15 562.114 646.15 561.746 646.072 561.496 645.916 561.364 645.759 561.231 645.494 561.153 645.119 561.129L645.236 560.555 648.318 560.555 648.634 561.141C648.041 562.766 647.236 564.504 646.22 566.356 645.22 568.168 644.076 569.973 642.787 571.77 641.552 573.481 640.525 574.719 639.705 575.485 639.134 576.008 638.583 576.383 638.052 576.61 637.63 576.782 637.181 576.867 636.705 576.867 636.541 576.867 636.351 576.854 636.136 576.826 635.921 576.799 635.755 576.762 635.638 576.715L636.142 574.442 637.068 574.442C637.068 574.942 637.24 575.192 637.583 575.192 638.037 575.192 638.564 574.909 639.166 574.342 639.767 573.776 640.474 572.922 641.287 571.782 641.06 570.414 640.751 568.766 640.361 566.836 639.947 564.774 639.673 563.496 639.541 563.004 639.376 562.41 639.205 562.032 639.025 561.867 638.916 561.766 638.779 561.715 638.615 561.715 638.365 561.715 638.13 561.817 637.912 562.02 637.693 562.223 637.423 562.575 637.103 563.075L636.341 562.571C636.88 561.766 637.384 561.198 637.853 560.866 638.322 560.534 638.845 560.367 639.423 560.367Z" fill-rule="evenodd"/><text fill="#000000" fill-opacity="0" font-family="Arial,Arial_MSFontService,sans-serif" font-size="16.5" x="635.638" y="574.805">𝑦</text><path d="M642.886 554.86 644.457 554.86 648.441 558.551 647.808 559.219 643.672 556.371 643.543 556.371 639.336 559.219 638.703 558.551Z" fill-rule="evenodd"/><text fill="#000000" fill-opacity="0" font-family="Arial,Arial_MSFontService,sans-serif" font-size="4.35938" x="638.703" y="558.674">ො</text><path d="M652.109 565.637 653.48 565.637 652.979 567.869 655.967 567.869 655.765 568.845 652.786 568.845 651.889 572.527C651.831 572.773 651.782 572.995 651.744 573.191 651.706 573.387 651.675 573.564 651.652 573.723 651.628 573.881 651.612 574.024 651.603 574.153 651.595 574.282 651.59 574.402 651.59 574.514 651.59 574.865 651.664 575.141 651.81 575.34 651.956 575.539 652.197 575.639 652.531 575.639 652.812 575.639 653.111 575.535 653.427 575.327 653.744 575.119 654.104 574.792 654.508 574.347L655.115 574.962C654.816 575.296 654.532 575.58 654.262 575.814 653.993 576.049 653.729 576.241 653.471 576.39 653.213 576.539 652.958 576.648 652.706 576.715 652.455 576.783 652.197 576.816 651.933 576.816 651.236 576.816 650.716 576.652 650.373 576.324 650.03 575.996 649.859 575.513 649.859 574.874 649.859 574.657 649.875 574.418 649.907 574.158 649.939 573.897 649.985 573.643 650.043 573.397L651.089 568.845 649.578 568.845 649.753 568.168C650.105 568.168 650.379 568.134 650.575 568.067 650.771 567.999 650.937 567.907 651.072 567.79 651.16 567.708 651.245 567.607 651.327 567.487 651.409 567.367 651.491 567.222 651.573 567.052 651.655 566.882 651.738 566.681 651.823 566.45 651.908 566.218 652.003 565.947 652.109 565.637Z" fill-rule="evenodd"/><text fill="#000000" fill-opacity="0" font-family="Arial,Arial_MSFontService,sans-serif" font-size="11.1797" x="649.578" y="575.419">𝑡</text><path d="M672.663 553.17C673.273 553.17 673.793 553.238 674.223 553.376 674.654 553.514 675.004 553.7 675.274 553.934 675.543 554.169 675.738 554.45 675.858 554.778 675.978 555.106 676.038 555.461 676.038 555.841 676.038 556.07 676.022 556.282 675.99 556.479 675.958 556.675 675.902 556.868 675.823 557.059 675.744 557.249 675.64 557.441 675.511 557.634 675.382 557.828 675.221 558.033 675.028 558.25 674.881 558.437 674.691 558.654 674.456 558.9 674.222 559.146 673.966 559.41 673.687 559.691 673.409 559.972 673.117 560.265 672.813 560.57 672.508 560.875 672.212 561.176 671.925 561.475 671.638 561.774 671.374 562.064 671.134 562.345 670.894 562.627 670.697 562.884 670.545 563.119L673.797 563.119C674.072 563.119 674.292 563.109 674.456 563.088 674.62 563.068 674.757 563.022 674.865 562.952 674.973 562.882 675.066 562.775 675.142 562.631 675.218 562.487 675.306 562.29 675.405 562.038L676.223 562.038C676.194 562.454 676.166 562.873 676.139 563.295 676.113 563.716 676.085 564.135 676.056 564.551L668.612 564.551 668.612 564.094C668.752 563.778 668.916 563.466 669.104 563.158 669.291 562.851 669.502 562.539 669.737 562.222 669.971 561.906 670.237 561.579 670.536 561.242 670.835 560.905 671.166 560.555 671.529 560.192 672.08 559.641 672.529 559.171 672.874 558.781 673.22 558.392 673.492 558.045 673.692 557.74 673.891 557.435 674.027 557.154 674.1 556.896 674.174 556.638 674.21 556.363 674.21 556.07 674.21 555.771 674.168 555.496 674.083 555.244 673.998 554.992 673.876 554.778 673.718 554.602 673.56 554.426 673.359 554.289 673.116 554.189 672.873 554.09 672.593 554.04 672.277 554.04 671.732 554.04 671.275 554.188 670.905 554.484 670.536 554.779 670.249 555.209 670.044 555.771L668.893 555.771 668.893 554.057C669.643 553.747 670.333 553.521 670.963 553.381 671.592 553.24 672.159 553.17 672.663 553.17Z" fill-rule="evenodd"/><text fill="#000000" fill-opacity="0" font-family="Arial,Arial_MSFontService,sans-serif" font-size="11.3818" x="668.612" y="563.129">2</text><path d="M556.502 527.158C556.936 527.158 557.271 527.3 557.508 527.584 557.746 527.868 557.864 528.242 557.864 528.705 557.864 528.822 557.854 528.945 557.834 529.074 557.813 529.203 557.776 529.326 557.724 529.443L557.847 529.487C558.415 528.708 558.976 528.125 559.53 527.738 560.084 527.351 560.656 527.158 561.248 527.158 561.869 527.158 562.334 527.325 562.641 527.659 562.949 527.993 563.103 528.462 563.103 529.065 563.103 529.247 563.076 529.499 563.024 529.821 562.971 530.143 562.903 530.495 562.821 530.876 562.739 531.256 562.651 531.648 562.558 532.049 562.464 532.45 562.376 532.821 562.294 533.161 562.212 533.501 562.145 533.791 562.092 534.031 562.039 534.271 562.013 534.421 562.013 534.479 562.013 534.702 562.054 534.863 562.136 534.963 562.218 535.062 562.35 535.112 562.531 535.112 562.643 535.112 562.753 535.091 562.861 535.05 562.969 535.009 563.082 534.945 563.199 534.857 563.317 534.769 563.445 534.656 563.586 534.519 563.727 534.381 563.885 534.215 564.061 534.022L564.667 534.602C564.38 534.895 564.116 535.147 563.876 535.358 563.636 535.569 563.403 535.743 563.177 535.881 562.952 536.019 562.728 536.121 562.505 536.189 562.282 536.256 562.045 536.29 561.793 536.29 561.582 536.29 561.387 536.249 561.209 536.167 561.03 536.085 560.876 535.972 560.747 535.828 560.618 535.685 560.519 535.515 560.448 535.318 560.378 535.122 560.343 534.907 560.343 534.672 560.343 534.438 560.368 534.164 560.418 533.851 560.467 533.537 560.542 533.193 560.642 532.818 560.747 532.437 560.845 532.072 560.936 531.724 561.027 531.375 561.106 531.053 561.173 530.757 561.241 530.461 561.294 530.197 561.332 529.966 561.37 529.734 561.389 529.543 561.389 529.39 561.389 529.027 561.32 528.76 561.182 528.59 561.045 528.421 560.823 528.336 560.519 528.336 560.343 528.336 560.154 528.381 559.952 528.472 559.75 528.563 559.546 528.689 559.341 528.85 559.136 529.011 558.935 529.201 558.739 529.421 558.543 529.641 558.362 529.875 558.198 530.124 558.034 530.373 557.889 530.634 557.763 530.906 557.637 531.179 557.545 531.45 557.486 531.719L556.502 536.131 554.779 536.131 556.098 530.401C556.174 530.096 556.23 529.824 556.265 529.584 556.3 529.343 556.318 529.147 556.318 528.995 556.318 528.567 556.145 528.353 555.799 528.353 555.693 528.353 555.587 528.375 555.478 528.419 555.37 528.463 555.255 528.529 555.135 528.617 555.015 528.705 554.885 528.816 554.744 528.951 554.604 529.086 554.445 529.244 554.27 529.425L553.663 528.854C553.956 528.555 554.224 528.299 554.467 528.085 554.711 527.871 554.942 527.695 555.162 527.558 555.381 527.42 555.6 527.319 555.817 527.255 556.033 527.19 556.262 527.158 556.502 527.158Z" fill-rule="evenodd"/><text fill="#000000" fill-opacity="0" font-family="Arial,Arial_MSFontService,sans-serif" font-size="9.13184" x="553.663" y="535.148">𝑛</text><path d="M547.415 591.33 548.787 591.33 548.286 593.562 551.274 593.562 551.072 594.538 548.092 594.538 547.196 598.221C547.137 598.467 547.089 598.688 547.051 598.884 547.013 599.08 546.982 599.258 546.958 599.416 546.935 599.574 546.919 599.718 546.91 599.847 546.901 599.975 546.897 600.096 546.897 600.207 546.897 600.558 546.97 600.834 547.117 601.033 547.263 601.232 547.503 601.332 547.837 601.332 548.119 601.332 548.417 601.228 548.734 601.02 549.05 600.812 549.411 600.485 549.815 600.04L550.421 600.655C550.122 600.989 549.838 601.273 549.569 601.508 549.299 601.742 549.036 601.934 548.778 602.083 548.52 602.233 548.265 602.341 548.013 602.409 547.761 602.476 547.503 602.51 547.24 602.51 546.542 602.51 546.022 602.346 545.68 602.017 545.337 601.689 545.165 601.206 545.165 600.567 545.165 600.35 545.182 600.112 545.214 599.851 545.246 599.59 545.291 599.337 545.35 599.091L546.396 594.538 544.884 594.538 545.06 593.861C545.412 593.861 545.685 593.828 545.882 593.76 546.078 593.693 546.244 593.6 546.378 593.483 546.466 593.401 546.551 593.3 546.633 593.18 546.715 593.06 546.797 592.915 546.879 592.745 546.961 592.575 547.045 592.374 547.13 592.143 547.215 591.911 547.31 591.641 547.415 591.33Z" fill-rule="evenodd"/><text fill="#000000" fill-opacity="0" font-family="Arial,Arial_MSFontService,sans-serif" font-size="11.1797" x="544.884" y="601.112">𝑡</text><path d="M553.255 598.449 563.38 598.449 563.38 599.794 553.255 599.794ZM553.255 594.626 563.38 594.626 563.38 595.971 553.255 595.971Z" fill-rule="evenodd"/><text fill="#000000" fill-opacity="0" font-family="Arial,Arial_MSFontService,sans-serif" font-size="5.16797" x="553.255" y="599.148">=</text><path d="M570.369 591.031 570.905 591.031C570.893 591.353 570.884 591.642 570.879 591.897 570.873 592.152 570.868 592.399 570.865 592.64 570.862 592.88 570.861 593.117 570.861 593.351L570.861 600.031C570.861 600.213 570.867 600.37 570.879 600.501 570.89 600.633 570.909 600.745 570.936 600.835 570.962 600.926 570.997 601.004 571.041 601.068 571.085 601.133 571.136 601.188 571.195 601.235 571.265 601.306 571.359 601.36 571.476 601.398 571.593 601.436 571.743 601.468 571.924 601.495 572.106 601.521 572.324 601.541 572.579 601.556 572.834 601.571 573.14 601.581 573.498 601.587L573.498 602.351 566.528 602.351 566.528 601.587C566.874 601.575 567.167 601.562 567.407 601.547 567.647 601.533 567.852 601.512 568.022 601.486 568.192 601.459 568.328 601.43 568.431 601.398 568.533 601.366 568.623 601.326 568.699 601.279 568.781 601.226 568.851 601.169 568.91 601.108 568.968 601.046 569.015 600.969 569.05 600.875 569.086 600.781 569.113 600.667 569.134 600.532 569.154 600.397 569.165 600.23 569.165 600.031L569.165 593.729C569.165 593.501 569.121 593.34 569.033 593.246 568.945 593.152 568.819 593.105 568.655 593.105 568.473 593.105 568.204 593.199 567.846 593.387 567.489 593.574 567.026 593.852 566.458 594.222 566.381 594.087 566.311 593.952 566.247 593.817 566.182 593.682 566.115 593.545 566.045 593.404 566.771 593.006 567.49 592.609 568.202 592.213 568.914 591.818 569.636 591.424 570.369 591.031Z" fill-rule="evenodd"/><text fill="#000000" fill-opacity="0" font-family="Arial,Arial_MSFontService,sans-serif" font-size="11.3203" x="566.045" y="600.936">1</text></g></svg>